<svg xmlns="http://www.w3.org/2000/svg" viewBox="0 0 800 1000" width="800" height="1000" role="img" aria-label="Arc terminal plate: a stroked arc cut at 45 degrees at both terminals">
	<defs>
		<radialGradient id="bg" cx="50%" cy="32%" r="74%">
			<stop offset="0%" stop-color="#1a1e22"/>
			<stop offset="100%" stop-color="#08090a"/>
		</radialGradient>
	</defs>
	<rect width="800" height="1000" fill="url(#bg)"/>

	<!-- The mark. This is the content; everything below is its evidence. -->
	<g transform="translate(400,300)">
		<g fill="none" stroke="#f4f2ee" stroke-width="48">
			<path d="M-153.60000000000002 89.60000000000001 A153.60000000000002 153.60000000000002 0 0 1 153.60000000000002 89.60000000000001"/>
		</g>
		<g fill="#ff5a1f">
			<path d="M-176 36.480000000000004 L-111.04000000000002 20.8 L-122.24000000000001 85.76 Z"/>
			<path d="M128.64000000000001 20.8 L63.68 36.480000000000004 L74.88 -28.480000000000004 Z"/>
		</g></g>
	<text x="400" y="556" text-anchor="middle" font-family="ui-monospace,Menlo,monospace" font-size="22" fill="#f4f2ee">one angle cut across the stroke, applied to both ends</text>

	<path d="M96 600 H704" stroke="#2c3238" stroke-dasharray="2 6"/>
	<text x="96" y="636" font-family="ui-monospace,Menlo,monospace" font-size="17" fill="#6a7178">the same geometry, reduced</text>

<g transform="translate(190,712)">
		<g fill="none" stroke="#f4f2ee" stroke-width="15">
			<path d="M-48 28 A48 48 0 0 1 48 28"/>
		</g>
		<g fill="#ff5a1f">
			<path d="M-55 11.4 L-34.7 6.5 L-38.2 26.8 Z"/>
			<path d="M40.2 6.5 L19.9 11.4 L23.4 -8.9 Z"/>
		</g></g>
	<text x="190" y="812" text-anchor="middle" font-family="ui-monospace,Menlo,monospace" font-size="16" fill="#6a7178">100px</text>
<g transform="translate(400,724)">
		<g fill="none" stroke="#f4f2ee" stroke-width="8.7">
			<path d="M-27.839999999999996 16.24 A27.839999999999996 27.839999999999996 0 0 1 27.839999999999996 16.24"/>
		</g>
		<g fill="#ff5a1f">
			<path d="M-31.9 6.612 L-20.126 3.7699999999999996 L-22.156 15.543999999999999 Z"/>
			<path d="M23.316 3.7699999999999996 L11.541999999999998 6.612 L13.571999999999997 -5.162 Z"/>
		</g></g>
	<text x="400" y="812" text-anchor="middle" font-family="ui-monospace,Menlo,monospace" font-size="16" fill="#6a7178">58px</text>
<g transform="translate(610,734)">
		<g fill="none" stroke="#f4f2ee" stroke-width="4.8">
			<path d="M-15.36 8.96 A15.36 15.36 0 0 1 15.36 8.96"/>
		</g>
		<g fill="#ff5a1f">
			<path d="M-17.6 3.648 L-11.104000000000001 2.08 L-12.224000000000002 8.576 Z"/>
			<path d="M12.864 2.08 L6.367999999999999 3.648 L7.4879999999999995 -2.8480000000000003 Z"/>
		</g></g>
	<text x="610" y="812" text-anchor="middle" font-family="ui-monospace,Menlo,monospace" font-size="16" fill="#6a7178">32px</text>

	<path d="M96 846 H704" stroke="#2c3238" stroke-dasharray="2 6"/>
<text x="96" y="888" font-family="ui-monospace,Menlo,monospace" font-size="17" fill="#6a7178">A cap angle scales with the stroke. A cap shape does not.</text>
<text x="96" y="920" font-family="ui-monospace,Menlo,monospace" font-size="17" fill="#4c545c">Specify the angle; change only the radius to get a family.</text>

	<path d="M96 958 H704" stroke="#1c2126"/>
	<text x="96" y="988" font-family="ui-monospace,Menlo,monospace" font-size="17" fill="#6a7178">holds: one angle · one radius</text>
	<text x="728" y="988" text-anchor="end" font-family="ui-monospace,Menlo,monospace" font-size="17" fill="#f2a33c">breaks under 14px, honestly</text>
</svg>
