<svg xmlns="http://www.w3.org/2000/svg" width="800" height="1000" aria-label="Command palette plate: a single omnibar overriding conventional navigation" role="img" viewBox="0 0 800 1000"><defs><linearGradient id="cpal" x1="0" x2="0" y1="0" y2="1"><stop offset="0%" stop-color="#161b21"/><stop offset="100%" stop-color="#0c0e11"/></linearGradient><filter id="cblur" width="140%" height="140%" x="-20%" y="-20%"><feGaussianBlur stdDeviation="18"/></filter></defs><rect width="800" height="1000" fill="#08090a"/><g fill="#2b323a" opacity=".2"><rect width="150" height="14" x="64" y="92" rx="2"/><rect width="104" height="14" x="64" y="126" rx="2"/><rect width="672" height="1" x="64" y="196"/><rect width="672" height="96" x="64" y="222" rx="4"/><rect width="672" height="96" x="64" y="338" rx="4"/><rect width="672" height="96" x="64" y="454" rx="4"/></g><rect width="800" height="1000" fill="#08090a" opacity=".72"/><ellipse cx="400" cy="452" fill="#ff5a1f" filter="url(#cblur)" opacity=".1" rx="330" ry="180"/><rect width="608" height="76" x="96" y="316" fill="url(#cpal)" stroke="#343b42" rx="6"/><rect width="608" height="76" x="96" y="316" fill="none" stroke="#ff5a1f" stroke-opacity=".5" rx="6"/><g fill="none" stroke="#8b929a" stroke-linecap="round" stroke-width="2"><circle cx="132" cy="354" r="11"/><path d="M140 362 L150 372"/></g><text x="170" y="363" fill="#f4f2ee" font-family="ui-monospace,Menlo,monospace" font-size="27">ship</text><rect width="3" height="46" x="234" y="331" fill="#ff5a1f"/><text x="248" y="363" fill="#8b929a" font-family="ui-monospace,Menlo,monospace" font-size="27">…</text><g font-family="ui-monospace,Menlo,monospace"><rect width="608" height="1" x="96" y="404" fill="#23272c"/><g><rect width="4" height="66" x="96" y="405" fill="#ff5a1f"/><text x="128" y="436" fill="#f4f2ee" font-size="26">Rebuild staging bundle</text><text x="128" y="462" fill="#6a7178" font-size="18">deploy · target=preview</text><text x="672" y="448" fill="#8b929a" font-size="18" text-anchor="end">⏎</text></g><rect width="608" height="1" x="96" y="472" fill="#23272c"/><g><rect width="4" height="66" x="96" y="473" fill="#23272c"/><text x="128" y="504" fill="#b6bcc3" font-size="26">Shiproom.deployments</text><text x="128" y="530" fill="#6a7178" font-size="18">collection · 4 records</text><text x="672" y="516" fill="#4d565f" font-size="18" text-anchor="end">⇥</text></g><rect width="608" height="1" x="96" y="540" fill="#23272c"/><g><rect width="4" height="66" x="96" y="541" fill="#23272c"/><text x="128" y="572" fill="#b6bcc3" font-size="26">Ship a new asset pack</text><text x="128" y="598" fill="#6a7178" font-size="18">action · opens hunt brief</text><text x="672" y="584" fill="#4d565f" font-size="18" text-anchor="end">⇥</text></g><rect width="608" height="1" x="96" y="608" fill="#23272c"/></g><g fill="#6a7178" font-family="ui-monospace,Menlo,monospace" font-size="17"><text x="96" y="654">↑↓ move</text><text x="704" y="654" text-anchor="end">esc dismiss</text></g><g opacity=".16"><rect width="608" height="1" x="96" y="884" fill="#343b42"/><g fill="#8b929a" font-family="ui-monospace,Menlo,monospace" font-size="19"><text x="96" y="924">Catalogue</text><text x="252" y="924">Verticals</text><text x="408" y="924">Licensing</text><text x="560" y="924">About</text></g></g></svg>